<svg xmlns="http://www.w3.org/2000/svg" viewBox="0 0 256 256">
  <path d="M36 22H220C228 22 234 28 234 36V164C234 172 228 178 220 178H171L202 234L153 178H36C28 178 22 172 22 164V36C22 28 28 22 36 22Z" fill="none" stroke="#FFFFFF" stroke-width="16" stroke-linecap="round" stroke-linejoin="round"/>
  <path d="M53 62H72L91 124L110 62H129L101 151H82L53 62Z" fill="#FFFFFF"/>
  <path d="M141 62H170C191 62 204 72 204 91C204 104 197 113 187 117L207 151H185L168 121H159V151H141V62ZM159 78V105H169C180 105 186 100 186 91C186 82 180 78 169 78H159Z" fill="#FFFFFF"/>
</svg>
